<svg width="12" height="12" viewBox="0 0 12 12" fill="none" xmlns="http://www.w3.org/2000/svg">
<g clip-path="url(#clip0_4663_538)">
<path fill-rule="evenodd" clip-rule="evenodd" d="M10.2135 1.79774C7.88474 -0.531011 4.11149 -0.534761 1.78724 1.78949C-0.538507 4.11599 -0.536257 7.88774 1.79399 10.2165C4.12274 12.5452 7.89674 12.5482 10.2202 10.224C12.5452 7.89974 12.543 4.12649 10.2135 1.79774ZM7.21124 8.51324L5.94524 7.24724L4.67924 8.51324C4.16249 9.02999 3.77399 9.47999 3.15749 8.86424C2.54249 8.24849 2.99024 7.85999 3.50924 7.34249L4.77524 6.07724L3.50924 4.81124C2.99174 4.29449 2.54249 3.90599 3.15749 3.28949C3.77399 2.67449 4.16249 3.12374 4.67924 3.64124L5.94524 4.90574L7.21124 3.64124C7.72874 3.12449 8.11499 2.67374 8.73149 3.28949C9.34799 3.90599 8.89874 4.29449 8.38124 4.81124L7.11524 6.07649L8.38124 7.34174C8.89799 7.85999 9.34799 8.24849 8.73149 8.86424C8.11649 9.47999 7.72874 9.02999 7.21124 8.51324Z" fill="#D51A52"/>
</g>
<defs>
<clipPath id="clip0_4663_538">
<rect width="12" height="12" fill="white"/>
</clipPath>
</defs>
</svg>
