<svg width="12" height="12" viewBox="0 0 12 12" fill="none" xmlns="http://www.w3.org/2000/svg">
<g clip-path="url(#clip0_4663_517)">
<path d="M6 0C4.81331 0 3.65328 0.351894 2.66658 1.01118C1.67989 1.67047 0.910851 2.60754 0.456725 3.7039C0.00259969 4.80026 -0.11622 6.00666 0.115291 7.17054C0.346802 8.33443 0.918247 9.40353 1.75736 10.2426C2.59648 11.0818 3.66558 11.6532 4.82946 11.8847C5.99335 12.1162 7.19975 11.9974 8.2961 11.5433C9.39246 11.0892 10.3295 10.3201 10.9888 9.33342C11.6481 8.34673 12 7.18669 12 6C12 4.4087 11.3679 2.88258 10.2426 1.75736C9.11743 0.632141 7.5913 0 6 0ZM9.91875 3.98625L4.99125 8.91L2.08125 6C1.9818 5.90054 1.92592 5.76565 1.92592 5.625C1.92592 5.48435 1.9818 5.34946 2.08125 5.25C2.18071 5.15054 2.3156 5.09467 2.45625 5.09467C2.5969 5.09467 2.7318 5.15054 2.83125 5.25L4.99875 7.4175L9.17625 3.24375C9.2255 3.1945 9.28396 3.15544 9.3483 3.12879C9.41265 3.10214 9.48161 3.08842 9.55125 3.08842C9.6209 3.08842 9.68986 3.10214 9.7542 3.12879C9.81854 3.15544 9.87701 3.1945 9.92625 3.24375C9.9755 3.293 10.0146 3.35146 10.0412 3.4158C10.0679 3.48014 10.0816 3.54911 10.0816 3.61875C10.0816 3.68839 10.0679 3.75736 10.0412 3.8217C10.0146 3.88604 9.9755 3.9445 9.92625 3.99375L9.91875 3.98625Z" fill="#00B998"/>
</g>
<defs>
<clipPath id="clip0_4663_517">
<rect width="12" height="12" fill="white"/>
</clipPath>
</defs>
</svg>
